<svg xmlns="http://www.w3.org/2000/svg" viewBox="0 0 512 512">
    <path fill="#e65100"
        d="M386.246 262.048c.116.019.228.027.228.027-.548-.557-1.039-1.086-1.573-1.634a130.71 130.71 0 00-8.631-9.127c-26.002-28.338-38.43-50.965-20.009-72.33 8.881-10.288 18.087-25.265 18.087-45.209 0-25.692-15.427-53.398-31.299-46.527-17.66 7.642-11.755 67.214-70.464 28.231-5.162-3.44-12.266 11.843-17.159 32.308-4.907-20.316-11.955-35.432-17.098-32.015-58.709 38.988-52.799-20.585-70.459-28.226-15.873-6.871-31.304 20.835-31.304 46.532 0 19.939 9.211 34.917 18.092 45.204 17.953 20.822 6.625 42.846-18.045 70.172-23.737 21.945-38.119 50.497-38.119 81.759 0 69.155 70.269 125.218 156.948 125.218 86.665 0 156.934-56.063 156.934-125.218-.001-25.572-9.634-49.347-26.129-69.165z" />
    <path
        d="M277.116 249.884V140.543l-1.114-14.967s15.557 2.303 26.647 13.231c11.101 10.938 6.662 29.926 8.891 43.742 2.21 13.807 48.296 61.002 42.743 78.848-5.548 17.837-77.167-11.513-77.167-11.513z" />
    <path fill="#ccdde1"
        d="M285.77 416.156c0 8.013-10.979 49.331-18.992 49.331h-24.271c-8.018 0-17.414-41.318-17.414-49.331 0-8.009 6.495-14.499 14.512-14.499h31.648c8.013 0 14.517 6.49 14.517 14.499z" />
    <path fill="#9eacb5"
        d="M226.42 346.519a5.532 5.532 0 00-5.538 5.538v52.229a5.533 5.533 0 005.538 5.543 5.545 5.545 0 005.539-5.543v-52.229a5.544 5.544 0 00-5.539-5.538zM284.451 346.519a5.541 5.541 0 00-5.543 5.538v52.229a5.542 5.542 0 005.543 5.543 5.532 5.532 0 005.533-5.543v-52.229a5.53 5.53 0 00-5.533-5.538z" />
    <path fill="#ccdde1" d="M227.112 355.371h56.657v6.5h-56.657zM227.112 386.652h56.657v6.509h-56.657z" />
    <path
        d="M186.606 240.832c-3.7-.441-7.01 1.792-7.4 4.986-.195 1.62.399 3.171 1.514 4.378-4.383 1.026-11.017 3.621-15.158 10.283-4.517 7.237-6.903 18.983-7.967 25.71-1.731 1.013-2.938 2.86-2.938 5.07 0 2.103 1.109 3.857 2.707 4.911-.098 7.428-.892 19.304-4.689 26.978-3.575 7.233-7.781 10.172-10.622 11.63-1.012-.636-2.177-1.105-3.51-1.175-3.709-.172-6.848 2.294-6.996 5.521-.153 3.212 2.73 5.97 6.448 6.146 3.714.172 6.857-2.303 7.015-5.516.074-1.634-.641-3.134-1.829-4.252 4.28-1.347 10.715-4.43 14.354-11.365 4.415-8.385 5.798-22.107 6.221-28.255 1.355-1.081 2.298-2.706 2.298-4.623 0-1.886-.905-3.491-2.229-4.578.757-7.409 2.488-18.036 6.504-24.865 4.109-6.945 8.51-9.568 11.448-10.817.966.706 2.089 1.272 3.417 1.43 3.682.446 6.996-1.787 7.396-4.991.381-3.204-2.298-6.161-5.984-6.606zM324.274 240.832c3.695-.441 7.01 1.792 7.396 4.986.181 1.62-.409 3.171-1.514 4.378 4.368 1.026 11.021 3.621 15.153 10.283 4.508 7.237 6.907 18.983 7.971 25.71 1.723 1.013 2.943 2.86 2.943 5.07 0 2.103-1.123 3.857-2.721 4.911.111 7.428.905 19.304 4.689 26.978 3.569 7.233 7.79 10.172 10.622 11.63 1.025-.636 2.172-1.105 3.51-1.175 3.723-.172 6.852 2.294 7.01 5.521.148 3.212-2.744 5.97-6.463 6.146-3.714.172-6.852-2.303-7-5.516-.074-1.634.631-3.134 1.819-4.252-4.28-1.347-10.724-4.43-14.354-11.365-4.405-8.385-5.803-22.107-6.226-28.255-1.355-1.081-2.298-2.706-2.298-4.623 0-1.886.9-3.491 2.229-4.578-.743-7.409-2.475-18.036-6.504-24.865-4.095-6.945-8.51-9.568-11.435-10.817-.979.706-2.099 1.272-3.431 1.43-3.682.446-7.001-1.787-7.382-4.991-.384-3.204 2.291-6.161 5.986-6.606z" />
    <path fill="#ccdde1" d="M219.47 216.783h71.935v40.789H219.47z" />
    <path fill="#9eacb5" d="M224.786 222.224h61.304v29.912h-61.304z" />
    <path fill="#ccdde1"
        d="M231.425 278.854c0 5.246-4.248 9.499-9.494 9.499s-9.494-4.253-9.494-9.499c0-5.236 4.248-9.494 9.494-9.494s9.494 4.257 9.494 9.494zM298.435 278.854c0 5.246-4.258 9.499-9.499 9.499-5.246 0-9.498-4.253-9.498-9.499 0-5.236 4.252-9.494 9.498-9.494 5.241-.001 9.499 4.257 9.499 9.494z" />
    <path fill="#9eacb5"
        d="M292.636 278.854a6.602 6.602 0 01-6.606 6.602h-61.197c-3.63 0-6.588-2.952-6.588-6.602a6.592 6.592 0 016.588-6.588h61.197c3.649 0 6.606 2.948 6.606 6.588z" />
    <path fill="#ccdde1"
        d="M231.425 317.596c0 5.241-4.248 9.498-9.494 9.498s-9.494-4.257-9.494-9.498c0-5.251 4.248-9.494 9.494-9.494s9.494 4.243 9.494 9.494zM298.435 317.596c0 5.241-4.258 9.498-9.499 9.498-5.246 0-9.498-4.257-9.498-9.498a9.49 9.49 0 019.498-9.494c5.241 0 9.499 4.243 9.499 9.494z" />
    <path fill="#9eacb5"
        d="M292.636 317.596c0 3.644-2.957 6.587-6.606 6.587h-61.197a6.589 6.589 0 01-6.588-6.587c0-3.645 2.958-6.598 6.588-6.598h61.197a6.601 6.601 0 016.606 6.598z" />
    <path fill="#ccdde1"
        d="M340.374 387.507a9.495 9.495 0 01-9.498 9.499c-5.241 0-9.499-4.248-9.499-9.499 0-5.241 4.258-9.498 9.499-9.498 5.246 0 9.498 4.257 9.498 9.498zM370.36 355.307c0 5.246-4.253 9.498-9.499 9.498-5.241 0-9.494-4.252-9.494-9.498 0-5.241 4.253-9.494 9.494-9.494 5.246 0 9.499 4.252 9.499 9.494zM374.896 308.52c1.746 1.755 1.569 4.772-.408 6.74l-90.311 90.316c-1.968 1.978-4.985 2.153-6.736.403-1.759-1.755-1.578-4.772.391-6.736l90.314-90.325c1.977-1.968 4.995-2.153 6.75-.398z" />
    <path fill="#755440"
        d="M278.462.729c-7.59-.678-15.265-1.082-23.031-1.082S239.991.051 232.4.729v135.822h46.063V.729z" />
    <path fill="#ccdde1"
        d="M239.229 103.756h32.423v8.097h-32.423zM239.229 74.123h32.423v8.106h-32.423zM239.229 46.263h32.423v8.106h-32.423zM239.229 19.411h32.423v8.106h-32.423z" />
    <path fill="#ccdde1" d="M219.466 133.134h71.935v40.794h-71.935z" />
    <path fill="#9eacb5" d="M224.781 138.575h61.304v29.912h-61.304z" />
</svg>